<svg xmlns="http://www.w3.org/2000/svg" xmlns:xlink="http://www.w3.org/1999/xlink" width="500" zoomAndPan="magnify" viewBox="0 0 375 374.999991" height="500" preserveAspectRatio="xMidYMid meet" version="1.0"><defs><g><g id="id1"/></g><clipPath id="id2"><path d="M 101 49.832031 L 274.222656 49.832031 L 274.222656 148.832031 L 101 148.832031 Z M 101 49.832031 " clip-rule="nonzero"/></clipPath></defs><g clip-path="url(#id2)"><path fill="rgb(100%, 100%, 100%)" d="M 271.097656 99.332031 C 271.097656 73.746094 250.289062 52.925781 224.707031 52.925781 C 209.53125 52.925781 196.070312 60.296875 187.605469 71.613281 C 179.136719 60.296875 165.671875 52.925781 150.488281 52.925781 L 150.488281 71.488281 C 165.832031 71.488281 178.320312 83.980469 178.320312 99.332031 C 178.320312 114.683594 165.832031 127.175781 150.488281 127.175781 C 135.144531 127.175781 122.65625 114.683594 122.65625 99.332031 C 122.65625 93.003906 124.894531 86.953125 128.785156 82.058594 L 144.300781 93.144531 L 144.300781 49.832031 L 101.007812 62.207031 L 113.632812 71.222656 C 107.519531 79.25 104.101562 89.105469 104.101562 99.332031 C 104.101562 124.925781 124.90625 145.738281 150.488281 145.738281 C 165.671875 145.738281 179.132812 138.375 187.597656 127.058594 C 196.066406 138.371094 209.53125 145.738281 224.707031 145.738281 L 224.707031 127.175781 C 209.363281 127.175781 196.882812 114.691406 196.875 99.332031 C 196.882812 83.980469 209.363281 71.488281 224.707031 71.488281 C 240.054688 71.488281 252.542969 83.980469 252.542969 99.34375 C 252.546875 105.667969 250.308594 111.71875 246.417969 116.613281 L 230.898438 105.519531 L 230.894531 148.832031 L 274.195312 136.464844 L 261.570312 127.441406 C 267.683594 119.417969 271.101562 109.5625 271.097656 99.332031 Z M 271.097656 99.332031 " fill-opacity="1" fill-rule="nonzero"/></g><g fill="rgb(100%, 100%, 100%)" fill-opacity="1"><g transform="translate(119.664465, 191.831398)"><g><path d="M 1.84375 -4.484375 L 4.15625 -4.484375 L 4.15625 -20.3125 L 1.84375 -20.3125 L 1.84375 -24.828125 L 12.0625 -24.828125 L 19.390625 -6.90625 L 26.1875 -24.828125 L 36.546875 -24.828125 L 36.546875 -20.3125 L 34.234375 -20.3125 L 34.234375 -4.484375 L 36.515625 -4.484375 L 36.515625 0 L 27.234375 0 L 27.234375 -4.484375 L 28.9375 -4.484375 L 28.9375 -18.765625 L 21.5 -0.296875 L 16.890625 -0.296875 L 9.328125 -18.265625 L 9.328125 -4.484375 L 11.1875 -4.484375 L 11.1875 0 L 1.84375 0 Z M 1.84375 -4.484375 "/></g></g></g><g fill="rgb(100%, 100%, 100%)" fill-opacity="1"><g transform="translate(158.053384, 191.831398)"><g><path d="M 1.84375 -24.828125 L 21.59375 -24.828125 L 21.59375 -16.359375 L 16.265625 -16.359375 L 16.265625 -19.875 L 9.890625 -19.875 L 9.890625 -14.984375 L 14.8125 -14.984375 L 14.8125 -10.234375 L 9.890625 -10.234375 L 9.890625 -4.484375 L 16.265625 -4.484375 L 16.265625 -8.890625 L 21.59375 -8.890625 L 21.59375 0 L 1.84375 0 L 1.84375 -4.484375 L 4.453125 -4.484375 L 4.453125 -19.875 L 1.84375 -19.875 Z M 1.84375 -24.828125 "/></g></g></g><g fill="rgb(100%, 100%, 100%)" fill-opacity="1"><g transform="translate(180.644726, 191.831398)"><g><path d="M 17.53125 -24.828125 L 26.96875 -24.828125 L 26.96875 -20.3125 L 24.953125 -20.3125 L 24.953125 0 L 19.515625 0 L 9.1875 -16.046875 L 9.1875 -4.484375 L 11.265625 -4.484375 L 11.265625 0 L 1.84375 0 L 1.84375 -4.484375 L 3.890625 -4.484375 L 3.890625 -20.3125 L 1.890625 -20.3125 L 1.890625 -24.828125 L 9.375 -24.828125 L 19.640625 -8.5625 L 19.640625 -20.3125 L 17.53125 -20.3125 Z M 17.53125 -24.828125 "/></g></g></g><g fill="rgb(100%, 100%, 100%)" fill-opacity="1"><g transform="translate(208.4419, 191.831398)"><g><path d="M 13.078125 0.4375 C 11.953125 0.4375 10.875 0.285156 9.84375 -0.015625 C 8.820312 -0.316406 7.867188 -0.742188 6.984375 -1.296875 C 6.097656 -1.859375 5.289062 -2.53125 4.5625 -3.3125 C 3.832031 -4.09375 3.210938 -4.957031 2.703125 -5.90625 C 2.191406 -6.863281 1.789062 -7.890625 1.5 -8.984375 C 1.21875 -10.078125 1.078125 -11.21875 1.078125 -12.40625 C 1.078125 -13.59375 1.21875 -14.734375 1.5 -15.828125 C 1.789062 -16.929688 2.191406 -17.957031 2.703125 -18.90625 C 3.210938 -19.863281 3.832031 -20.734375 4.5625 -21.515625 C 5.289062 -22.296875 6.097656 -22.960938 6.984375 -23.515625 C 7.867188 -24.078125 8.820312 -24.507812 9.84375 -24.8125 C 10.875 -25.125 11.953125 -25.28125 13.078125 -25.28125 C 14.203125 -25.28125 15.28125 -25.125 16.3125 -24.8125 C 17.34375 -24.507812 18.300781 -24.078125 19.1875 -23.515625 C 20.082031 -22.960938 20.890625 -22.296875 21.609375 -21.515625 C 22.335938 -20.734375 22.960938 -19.863281 23.484375 -18.90625 C 24.003906 -17.957031 24.40625 -16.929688 24.6875 -15.828125 C 24.96875 -14.734375 25.109375 -13.59375 25.109375 -12.40625 C 25.109375 -11.226562 24.96875 -10.085938 24.6875 -8.984375 C 24.40625 -7.890625 24.003906 -6.863281 23.484375 -5.90625 C 22.960938 -4.957031 22.335938 -4.09375 21.609375 -3.3125 C 20.890625 -2.53125 20.082031 -1.859375 19.1875 -1.296875 C 18.300781 -0.742188 17.34375 -0.316406 16.3125 -0.015625 C 15.28125 0.285156 14.203125 0.4375 13.078125 0.4375 Z M 13.078125 -4.703125 C 14.023438 -4.703125 14.894531 -4.90625 15.6875 -5.3125 C 16.476562 -5.71875 17.15625 -6.269531 17.71875 -6.96875 C 18.289062 -7.675781 18.734375 -8.5 19.046875 -9.4375 C 19.359375 -10.375 19.515625 -11.363281 19.515625 -12.40625 C 19.515625 -13.46875 19.351562 -14.46875 19.03125 -15.40625 C 18.71875 -16.34375 18.273438 -17.160156 17.703125 -17.859375 C 17.128906 -18.566406 16.445312 -19.125 15.65625 -19.53125 C 14.875 -19.945312 14.015625 -20.15625 13.078125 -20.15625 C 12.140625 -20.15625 11.273438 -19.945312 10.484375 -19.53125 C 9.703125 -19.125 9.023438 -18.566406 8.453125 -17.859375 C 7.890625 -17.160156 7.445312 -16.34375 7.125 -15.40625 C 6.800781 -14.46875 6.640625 -13.46875 6.640625 -12.40625 C 6.640625 -11.363281 6.800781 -10.375 7.125 -9.4375 C 7.445312 -8.5 7.890625 -7.675781 8.453125 -6.96875 C 9.023438 -6.269531 9.703125 -5.71875 10.484375 -5.3125 C 11.273438 -4.90625 12.140625 -4.703125 13.078125 -4.703125 Z M 13.078125 -4.703125 "/></g></g></g><g fill="rgb(100%, 100%, 100%)" fill-opacity="1"><g transform="translate(234.962171, 191.831398)"><g><path d="M 13.78125 -17.828125 C 13.726562 -18.210938 13.59375 -18.570312 13.375 -18.90625 C 13.164062 -19.25 12.894531 -19.539062 12.5625 -19.78125 C 12.226562 -20.03125 11.851562 -20.222656 11.4375 -20.359375 C 11.019531 -20.503906 10.582031 -20.578125 10.125 -20.578125 C 9.707031 -20.578125 9.316406 -20.53125 8.953125 -20.4375 C 8.597656 -20.351562 8.285156 -20.222656 8.015625 -20.046875 C 7.742188 -19.867188 7.53125 -19.632812 7.375 -19.34375 C 7.21875 -19.0625 7.140625 -18.726562 7.140625 -18.34375 C 7.140625 -17.84375 7.242188 -17.445312 7.453125 -17.15625 C 7.671875 -16.875 7.945312 -16.640625 8.28125 -16.453125 C 8.613281 -16.265625 8.976562 -16.113281 9.375 -16 C 9.78125 -15.894531 10.175781 -15.78125 10.5625 -15.65625 L 15.0625 -14.140625 C 15.6875 -13.921875 16.269531 -13.617188 16.8125 -13.234375 C 17.363281 -12.859375 17.835938 -12.394531 18.234375 -11.84375 C 18.628906 -11.300781 18.941406 -10.675781 19.171875 -9.96875 C 19.398438 -9.257812 19.515625 -8.460938 19.515625 -7.578125 C 19.515625 -6.378906 19.289062 -5.28125 18.84375 -4.28125 C 18.40625 -3.289062 17.785156 -2.441406 16.984375 -1.734375 C 16.191406 -1.023438 15.238281 -0.472656 14.125 -0.078125 C 13.007812 0.304688 11.773438 0.5 10.421875 0.5 C 9.472656 0.5 8.578125 0.394531 7.734375 0.1875 C 6.890625 -0.0195312 6.117188 -0.328125 5.421875 -0.734375 C 4.722656 -1.140625 4.109375 -1.625 3.578125 -2.1875 C 3.054688 -2.75 2.648438 -3.382812 2.359375 -4.09375 L 0.671875 -4.09375 L 0.671875 -9.015625 L 6.59375 -9.015625 L 6.59375 -8 C 6.59375 -7.507812 6.671875 -7.054688 6.828125 -6.640625 C 6.992188 -6.234375 7.234375 -5.875 7.546875 -5.5625 C 7.859375 -5.257812 8.253906 -5.019531 8.734375 -4.84375 C 9.222656 -4.675781 9.785156 -4.59375 10.421875 -4.59375 C 11.410156 -4.59375 12.160156 -4.816406 12.671875 -5.265625 C 13.179688 -5.722656 13.4375 -6.359375 13.4375 -7.171875 C 13.4375 -7.585938 13.347656 -7.929688 13.171875 -8.203125 C 12.992188 -8.484375 12.757812 -8.71875 12.46875 -8.90625 C 12.1875 -9.101562 11.867188 -9.265625 11.515625 -9.390625 C 11.171875 -9.523438 10.832031 -9.648438 10.5 -9.765625 L 6.75 -10.96875 C 6.039062 -11.1875 5.351562 -11.488281 4.6875 -11.875 C 4.03125 -12.269531 3.445312 -12.765625 2.9375 -13.359375 C 2.425781 -13.953125 2.019531 -14.644531 1.71875 -15.4375 C 1.425781 -16.226562 1.28125 -17.128906 1.28125 -18.140625 C 1.28125 -19.316406 1.5 -20.363281 1.9375 -21.28125 C 2.375 -22.207031 2.984375 -22.988281 3.765625 -23.625 C 4.546875 -24.257812 5.476562 -24.738281 6.5625 -25.0625 C 7.644531 -25.394531 8.832031 -25.5625 10.125 -25.5625 C 11.132812 -25.5625 12.070312 -25.441406 12.9375 -25.203125 C 13.800781 -24.972656 14.570312 -24.660156 15.25 -24.265625 C 15.9375 -23.867188 16.515625 -23.414062 16.984375 -22.90625 C 17.460938 -22.40625 17.828125 -21.878906 18.078125 -21.328125 L 19.71875 -21.328125 L 19.71875 -16.390625 L 13.78125 -16.390625 Z M 13.78125 -17.828125 "/></g></g></g><g fill="rgb(100%, 100%, 100%)" fill-opacity="1"><g transform="translate(67.458552, 238.536043)"><g><path d="M 1.34375 -24.828125 L 10.875 -24.828125 C 12.007812 -24.828125 13.097656 -24.675781 14.140625 -24.375 C 15.179688 -24.082031 16.148438 -23.664062 17.046875 -23.125 C 17.953125 -22.59375 18.769531 -21.953125 19.5 -21.203125 C 20.238281 -20.460938 20.867188 -19.632812 21.390625 -18.71875 C 21.921875 -17.800781 22.328125 -16.8125 22.609375 -15.75 C 22.890625 -14.6875 23.03125 -13.582031 23.03125 -12.4375 C 23.03125 -11.289062 22.890625 -10.1875 22.609375 -9.125 C 22.328125 -8.070312 21.921875 -7.082031 21.390625 -6.15625 C 20.867188 -5.238281 20.238281 -4.398438 19.5 -3.640625 C 18.769531 -2.878906 17.953125 -2.226562 17.046875 -1.6875 C 16.148438 -1.15625 15.179688 -0.738281 14.140625 -0.4375 C 13.097656 -0.144531 12.007812 0 10.875 0 L 1.34375 0 L 1.34375 -4.484375 L 3.328125 -4.484375 L 3.328125 -20.3125 L 1.34375 -20.3125 Z M 8.765625 -20.3125 L 8.765625 -4.484375 L 10.84375 -4.484375 C 11.726562 -4.484375 12.5625 -4.691406 13.34375 -5.109375 C 14.125 -5.523438 14.804688 -6.085938 15.390625 -6.796875 C 15.972656 -7.515625 16.429688 -8.351562 16.765625 -9.3125 C 17.097656 -10.28125 17.265625 -11.320312 17.265625 -12.4375 C 17.265625 -13.539062 17.097656 -14.570312 16.765625 -15.53125 C 16.429688 -16.5 15.972656 -17.335938 15.390625 -18.046875 C 14.804688 -18.753906 14.125 -19.304688 13.34375 -19.703125 C 12.5625 -20.109375 11.726562 -20.3125 10.84375 -20.3125 Z M 8.765625 -20.3125 "/></g></g></g><g fill="rgb(100%, 100%, 100%)" fill-opacity="1"><g transform="translate(91.490502, 238.536043)"><g><path d="M 1.84375 -24.828125 L 21.59375 -24.828125 L 21.59375 -16.359375 L 16.265625 -16.359375 L 16.265625 -19.875 L 9.890625 -19.875 L 9.890625 -14.984375 L 14.8125 -14.984375 L 14.8125 -10.234375 L 9.890625 -10.234375 L 9.890625 -4.484375 L 16.265625 -4.484375 L 16.265625 -8.890625 L 21.59375 -8.890625 L 21.59375 0 L 1.84375 0 L 1.84375 -4.484375 L 4.453125 -4.484375 L 4.453125 -19.875 L 1.84375 -19.875 Z M 1.84375 -24.828125 "/></g></g></g><g fill="rgb(100%, 100%, 100%)" fill-opacity="1"><g transform="translate(114.081844, 238.536043)"><g><path d="M 13.78125 -17.828125 C 13.726562 -18.210938 13.59375 -18.570312 13.375 -18.90625 C 13.164062 -19.25 12.894531 -19.539062 12.5625 -19.78125 C 12.226562 -20.03125 11.851562 -20.222656 11.4375 -20.359375 C 11.019531 -20.503906 10.582031 -20.578125 10.125 -20.578125 C 9.707031 -20.578125 9.316406 -20.53125 8.953125 -20.4375 C 8.597656 -20.351562 8.285156 -20.222656 8.015625 -20.046875 C 7.742188 -19.867188 7.53125 -19.632812 7.375 -19.34375 C 7.21875 -19.0625 7.140625 -18.726562 7.140625 -18.34375 C 7.140625 -17.84375 7.242188 -17.445312 7.453125 -17.15625 C 7.671875 -16.875 7.945312 -16.640625 8.28125 -16.453125 C 8.613281 -16.265625 8.976562 -16.113281 9.375 -16 C 9.78125 -15.894531 10.175781 -15.78125 10.5625 -15.65625 L 15.0625 -14.140625 C 15.6875 -13.921875 16.269531 -13.617188 16.8125 -13.234375 C 17.363281 -12.859375 17.835938 -12.394531 18.234375 -11.84375 C 18.628906 -11.300781 18.941406 -10.675781 19.171875 -9.96875 C 19.398438 -9.257812 19.515625 -8.460938 19.515625 -7.578125 C 19.515625 -6.378906 19.289062 -5.28125 18.84375 -4.28125 C 18.40625 -3.289062 17.785156 -2.441406 16.984375 -1.734375 C 16.191406 -1.023438 15.238281 -0.472656 14.125 -0.078125 C 13.007812 0.304688 11.773438 0.5 10.421875 0.5 C 9.472656 0.5 8.578125 0.394531 7.734375 0.1875 C 6.890625 -0.0195312 6.117188 -0.328125 5.421875 -0.734375 C 4.722656 -1.140625 4.109375 -1.625 3.578125 -2.1875 C 3.054688 -2.75 2.648438 -3.382812 2.359375 -4.09375 L 0.671875 -4.09375 L 0.671875 -9.015625 L 6.59375 -9.015625 L 6.59375 -8 C 6.59375 -7.507812 6.671875 -7.054688 6.828125 -6.640625 C 6.992188 -6.234375 7.234375 -5.875 7.546875 -5.5625 C 7.859375 -5.257812 8.253906 -5.019531 8.734375 -4.84375 C 9.222656 -4.675781 9.785156 -4.59375 10.421875 -4.59375 C 11.410156 -4.59375 12.160156 -4.816406 12.671875 -5.265625 C 13.179688 -5.722656 13.4375 -6.359375 13.4375 -7.171875 C 13.4375 -7.585938 13.347656 -7.929688 13.171875 -8.203125 C 12.992188 -8.484375 12.757812 -8.71875 12.46875 -8.90625 C 12.1875 -9.101562 11.867188 -9.265625 11.515625 -9.390625 C 11.171875 -9.523438 10.832031 -9.648438 10.5 -9.765625 L 6.75 -10.96875 C 6.039062 -11.1875 5.351562 -11.488281 4.6875 -11.875 C 4.03125 -12.269531 3.445312 -12.765625 2.9375 -13.359375 C 2.425781 -13.953125 2.019531 -14.644531 1.71875 -15.4375 C 1.425781 -16.226562 1.28125 -17.128906 1.28125 -18.140625 C 1.28125 -19.316406 1.5 -20.363281 1.9375 -21.28125 C 2.375 -22.207031 2.984375 -22.988281 3.765625 -23.625 C 4.546875 -24.257812 5.476562 -24.738281 6.5625 -25.0625 C 7.644531 -25.394531 8.832031 -25.5625 10.125 -25.5625 C 11.132812 -25.5625 12.070312 -25.441406 12.9375 -25.203125 C 13.800781 -24.972656 14.570312 -24.660156 15.25 -24.265625 C 15.9375 -23.867188 16.515625 -23.414062 16.984375 -22.90625 C 17.460938 -22.40625 17.828125 -21.878906 18.078125 -21.328125 L 19.71875 -21.328125 L 19.71875 -16.390625 L 13.78125 -16.390625 Z M 13.78125 -17.828125 "/></g></g></g><g fill="rgb(100%, 100%, 100%)" fill-opacity="1"><g transform="translate(134.463171, 238.536043)"><g><path d="M 1.84375 -24.828125 L 13.3125 -24.828125 C 14.59375 -24.828125 15.765625 -24.625 16.828125 -24.21875 C 17.898438 -23.820312 18.820312 -23.285156 19.59375 -22.609375 C 20.375 -21.929688 20.984375 -21.148438 21.421875 -20.265625 C 21.859375 -19.378906 22.078125 -18.457031 22.078125 -17.5 C 22.078125 -16.34375 21.898438 -15.257812 21.546875 -14.25 C 21.203125 -13.238281 20.671875 -12.363281 19.953125 -11.625 C 19.234375 -10.882812 18.320312 -10.296875 17.21875 -9.859375 C 16.125 -9.429688 14.820312 -9.21875 13.3125 -9.21875 L 9.859375 -9.21875 L 9.859375 -4.484375 L 12.125 -4.484375 L 12.125 0 L 1.84375 0 L 1.84375 -4.484375 L 4.421875 -4.484375 L 4.421875 -20.3125 L 1.84375 -20.3125 Z M 9.859375 -20.3125 L 9.859375 -13.65625 L 12.09375 -13.65625 C 13.34375 -13.65625 14.332031 -13.914062 15.0625 -14.4375 C 15.789062 -14.96875 16.15625 -15.796875 16.15625 -16.921875 C 16.15625 -17.984375 15.8125 -18.8125 15.125 -19.40625 C 14.4375 -20.007812 13.425781 -20.3125 12.09375 -20.3125 Z M 9.859375 -20.3125 "/></g></g></g><g fill="rgb(100%, 100%, 100%)" fill-opacity="1"><g transform="translate(157.381924, 238.536043)"><g><path d="M 1.84375 -24.828125 L 21.59375 -24.828125 L 21.59375 -16.359375 L 16.265625 -16.359375 L 16.265625 -19.875 L 9.890625 -19.875 L 9.890625 -14.984375 L 14.8125 -14.984375 L 14.8125 -10.234375 L 9.890625 -10.234375 L 9.890625 -4.484375 L 16.265625 -4.484375 L 16.265625 -8.890625 L 21.59375 -8.890625 L 21.59375 0 L 1.84375 0 L 1.84375 -4.484375 L 4.453125 -4.484375 L 4.453125 -19.875 L 1.84375 -19.875 Z M 1.84375 -24.828125 "/></g></g></g><g fill="rgb(100%, 100%, 100%)" fill-opacity="1"><g transform="translate(179.973266, 238.536043)"><g><path d="M 1.84375 -24.828125 L 14.984375 -24.828125 C 16.253906 -24.828125 17.390625 -24.632812 18.390625 -24.25 C 19.398438 -23.863281 20.25 -23.351562 20.9375 -22.71875 C 21.625 -22.082031 22.148438 -21.335938 22.515625 -20.484375 C 22.878906 -19.640625 23.0625 -18.757812 23.0625 -17.84375 C 23.0625 -17 22.972656 -16.257812 22.796875 -15.625 C 22.617188 -15 22.359375 -14.441406 22.015625 -13.953125 C 21.671875 -13.460938 21.242188 -13.023438 20.734375 -12.640625 C 20.234375 -12.265625 19.664062 -11.925781 19.03125 -11.625 C 19.582031 -11.34375 20.070312 -10.910156 20.5 -10.328125 C 20.925781 -9.742188 21.25 -8.988281 21.46875 -8.0625 L 22.296875 -4.828125 L 24.34375 -4.828125 L 24.375 0 L 17.171875 0 L 16.1875 -5.890625 C 16.09375 -6.585938 15.941406 -7.191406 15.734375 -7.703125 C 15.535156 -8.210938 15.265625 -8.628906 14.921875 -8.953125 C 14.585938 -9.273438 14.175781 -9.507812 13.6875 -9.65625 C 13.207031 -9.8125 12.632812 -9.890625 11.96875 -9.890625 L 9.859375 -9.890625 L 9.859375 -4.484375 L 12.125 -4.484375 L 12.125 0 L 1.84375 0 L 1.84375 -4.484375 L 4.421875 -4.484375 L 4.421875 -20.3125 L 1.84375 -20.3125 Z M 9.859375 -20.3125 L 9.859375 -14.3125 L 13.109375 -14.3125 C 13.734375 -14.3125 14.289062 -14.367188 14.78125 -14.484375 C 15.28125 -14.597656 15.707031 -14.773438 16.0625 -15.015625 C 16.425781 -15.265625 16.703125 -15.570312 16.890625 -15.9375 C 17.078125 -16.3125 17.171875 -16.753906 17.171875 -17.265625 C 17.171875 -18.234375 16.828125 -18.984375 16.140625 -19.515625 C 15.453125 -20.046875 14.441406 -20.3125 13.109375 -20.3125 Z M 9.859375 -20.3125 "/></g></g></g><g fill="rgb(100%, 100%, 100%)" fill-opacity="1"><g transform="translate(205.020189, 238.536043)"><g><path d="M 1.34375 -24.828125 L 10.875 -24.828125 C 12.007812 -24.828125 13.097656 -24.675781 14.140625 -24.375 C 15.179688 -24.082031 16.148438 -23.664062 17.046875 -23.125 C 17.953125 -22.59375 18.769531 -21.953125 19.5 -21.203125 C 20.238281 -20.460938 20.867188 -19.632812 21.390625 -18.71875 C 21.921875 -17.800781 22.328125 -16.8125 22.609375 -15.75 C 22.890625 -14.6875 23.03125 -13.582031 23.03125 -12.4375 C 23.03125 -11.289062 22.890625 -10.1875 22.609375 -9.125 C 22.328125 -8.070312 21.921875 -7.082031 21.390625 -6.15625 C 20.867188 -5.238281 20.238281 -4.398438 19.5 -3.640625 C 18.769531 -2.878906 17.953125 -2.226562 17.046875 -1.6875 C 16.148438 -1.15625 15.179688 -0.738281 14.140625 -0.4375 C 13.097656 -0.144531 12.007812 0 10.875 0 L 1.34375 0 L 1.34375 -4.484375 L 3.328125 -4.484375 L 3.328125 -20.3125 L 1.34375 -20.3125 Z M 8.765625 -20.3125 L 8.765625 -4.484375 L 10.84375 -4.484375 C 11.726562 -4.484375 12.5625 -4.691406 13.34375 -5.109375 C 14.125 -5.523438 14.804688 -6.085938 15.390625 -6.796875 C 15.972656 -7.515625 16.429688 -8.351562 16.765625 -9.3125 C 17.097656 -10.28125 17.265625 -11.320312 17.265625 -12.4375 C 17.265625 -13.539062 17.097656 -14.570312 16.765625 -15.53125 C 16.429688 -16.5 15.972656 -17.335938 15.390625 -18.046875 C 14.804688 -18.753906 14.125 -19.304688 13.34375 -19.703125 C 12.5625 -20.109375 11.726562 -20.3125 10.84375 -20.3125 Z M 8.765625 -20.3125 "/></g></g></g><g fill="rgb(100%, 100%, 100%)" fill-opacity="1"><g transform="translate(229.052139, 238.536043)"><g><path d="M 1.84375 -24.828125 L 12.46875 -24.828125 L 12.46875 -20.328125 L 9.859375 -20.328125 L 9.859375 -4.484375 L 12.46875 -4.484375 L 12.46875 0 L 1.84375 0 L 1.84375 -4.484375 L 4.421875 -4.484375 L 4.421875 -20.328125 L 1.84375 -20.328125 Z M 6.1875 -32.375 L 11.53125 -32.375 L 11.53125 -31.96875 L 6.515625 -27.28125 L 2.671875 -27.28125 Z M 6.1875 -32.375 "/></g></g></g><g fill="rgb(100%, 100%, 100%)" fill-opacity="1"><g transform="translate(242.312274, 238.536043)"><g><path d="M 18.109375 -17.265625 C 17.492188 -18.140625 16.941406 -18.757812 16.453125 -19.125 C 15.960938 -19.5 15.429688 -19.765625 14.859375 -19.921875 C 14.296875 -20.078125 13.703125 -20.15625 13.078125 -20.15625 C 12.160156 -20.15625 11.304688 -19.945312 10.515625 -19.53125 C 9.734375 -19.125 9.054688 -18.566406 8.484375 -17.859375 C 7.910156 -17.160156 7.457031 -16.34375 7.125 -15.40625 C 6.800781 -14.476562 6.640625 -13.488281 6.640625 -12.4375 C 6.640625 -11.382812 6.800781 -10.390625 7.125 -9.453125 C 7.445312 -8.523438 7.890625 -7.707031 8.453125 -7 C 9.023438 -6.300781 9.703125 -5.75 10.484375 -5.34375 C 11.273438 -4.9375 12.140625 -4.734375 13.078125 -4.734375 C 13.734375 -4.734375 14.34375 -4.835938 14.90625 -5.046875 C 15.476562 -5.265625 15.992188 -5.546875 16.453125 -5.890625 C 16.921875 -6.242188 17.328125 -6.644531 17.671875 -7.09375 C 18.023438 -7.550781 18.300781 -8.023438 18.5 -8.515625 L 23.765625 -7.046875 C 23.429688 -5.972656 22.9375 -4.976562 22.28125 -4.0625 C 21.625 -3.15625 20.832031 -2.367188 19.90625 -1.703125 C 18.988281 -1.035156 17.953125 -0.507812 16.796875 -0.125 C 15.648438 0.25 14.410156 0.4375 13.078125 0.4375 C 11.953125 0.4375 10.875 0.285156 9.84375 -0.015625 C 8.820312 -0.316406 7.867188 -0.742188 6.984375 -1.296875 C 6.097656 -1.859375 5.289062 -2.53125 4.5625 -3.3125 C 3.832031 -4.101562 3.210938 -4.976562 2.703125 -5.9375 C 2.191406 -6.894531 1.789062 -7.921875 1.5 -9.015625 C 1.21875 -10.109375 1.078125 -11.25 1.078125 -12.4375 C 1.078125 -14.21875 1.390625 -15.882812 2.015625 -17.4375 C 2.640625 -19 3.488281 -20.359375 4.5625 -21.515625 C 5.644531 -22.679688 6.914062 -23.597656 8.375 -24.265625 C 9.832031 -24.941406 11.398438 -25.28125 13.078125 -25.28125 C 14.421875 -25.28125 15.550781 -25.113281 16.46875 -24.78125 C 17.382812 -24.445312 18.394531 -23.789062 19.5 -22.8125 L 23.171875 -22.8125 L 23.171875 -17.265625 Z M 18.109375 -17.265625 "/></g></g></g><g fill="rgb(100%, 100%, 100%)" fill-opacity="1"><g transform="translate(267.752091, 238.536043)"><g><path d="M 1.84375 -24.828125 L 12.46875 -24.828125 L 12.46875 -20.328125 L 9.859375 -20.328125 L 9.859375 -4.484375 L 12.46875 -4.484375 L 12.46875 0 L 1.84375 0 L 1.84375 -4.484375 L 4.421875 -4.484375 L 4.421875 -20.328125 L 1.84375 -20.328125 Z M 1.84375 -24.828125 "/></g></g></g><g fill="rgb(100%, 100%, 100%)" fill-opacity="1"><g transform="translate(281.012226, 238.536043)"><g><path d="M 13.078125 0.4375 C 11.953125 0.4375 10.875 0.285156 9.84375 -0.015625 C 8.820312 -0.316406 7.867188 -0.742188 6.984375 -1.296875 C 6.097656 -1.859375 5.289062 -2.53125 4.5625 -3.3125 C 3.832031 -4.09375 3.210938 -4.957031 2.703125 -5.90625 C 2.191406 -6.863281 1.789062 -7.890625 1.5 -8.984375 C 1.21875 -10.078125 1.078125 -11.21875 1.078125 -12.40625 C 1.078125 -13.59375 1.21875 -14.734375 1.5 -15.828125 C 1.789062 -16.929688 2.191406 -17.957031 2.703125 -18.90625 C 3.210938 -19.863281 3.832031 -20.734375 4.5625 -21.515625 C 5.289062 -22.296875 6.097656 -22.960938 6.984375 -23.515625 C 7.867188 -24.078125 8.820312 -24.507812 9.84375 -24.8125 C 10.875 -25.125 11.953125 -25.28125 13.078125 -25.28125 C 14.203125 -25.28125 15.28125 -25.125 16.3125 -24.8125 C 17.34375 -24.507812 18.300781 -24.078125 19.1875 -23.515625 C 20.082031 -22.960938 20.890625 -22.296875 21.609375 -21.515625 C 22.335938 -20.734375 22.960938 -19.863281 23.484375 -18.90625 C 24.003906 -17.957031 24.40625 -16.929688 24.6875 -15.828125 C 24.96875 -14.734375 25.109375 -13.59375 25.109375 -12.40625 C 25.109375 -11.226562 24.96875 -10.085938 24.6875 -8.984375 C 24.40625 -7.890625 24.003906 -6.863281 23.484375 -5.90625 C 22.960938 -4.957031 22.335938 -4.09375 21.609375 -3.3125 C 20.890625 -2.53125 20.082031 -1.859375 19.1875 -1.296875 C 18.300781 -0.742188 17.34375 -0.316406 16.3125 -0.015625 C 15.28125 0.285156 14.203125 0.4375 13.078125 0.4375 Z M 13.078125 -4.703125 C 14.023438 -4.703125 14.894531 -4.90625 15.6875 -5.3125 C 16.476562 -5.71875 17.15625 -6.269531 17.71875 -6.96875 C 18.289062 -7.675781 18.734375 -8.5 19.046875 -9.4375 C 19.359375 -10.375 19.515625 -11.363281 19.515625 -12.40625 C 19.515625 -13.46875 19.351562 -14.46875 19.03125 -15.40625 C 18.71875 -16.34375 18.273438 -17.160156 17.703125 -17.859375 C 17.128906 -18.566406 16.445312 -19.125 15.65625 -19.53125 C 14.875 -19.945312 14.015625 -20.15625 13.078125 -20.15625 C 12.140625 -20.15625 11.273438 -19.945312 10.484375 -19.53125 C 9.703125 -19.125 9.023438 -18.566406 8.453125 -17.859375 C 7.890625 -17.160156 7.445312 -16.34375 7.125 -15.40625 C 6.800781 -14.46875 6.640625 -13.46875 6.640625 -12.40625 C 6.640625 -11.363281 6.800781 -10.375 7.125 -9.4375 C 7.445312 -8.5 7.890625 -7.675781 8.453125 -6.96875 C 9.023438 -6.269531 9.703125 -5.71875 10.484375 -5.3125 C 11.273438 -4.90625 12.140625 -4.703125 13.078125 -4.703125 Z M 13.078125 -4.703125 "/></g></g></g></svg>